<?xml version="1.0" encoding="UTF-8" standalone="no"?>
<svg
   viewBox="0 0 512 512"
   style="height: 512px; width: 512px;"
   version="1.1"
   id="svg198"
   sodipodi:docname="mouseRight.svg"
   inkscape:version="1.2 (dc2aedaf03, 2022-05-15)"
   xmlns:inkscape="http://www.inkscape.org/namespaces/inkscape"
   xmlns:sodipodi="http://sodipodi.sourceforge.net/DTD/sodipodi-0.dtd"
   xmlns="http://www.w3.org/2000/svg"
   xmlns:svg="http://www.w3.org/2000/svg">
  <defs
     id="defs202" />
  <sodipodi:namedview
     id="namedview200"
     pagecolor="#505050"
     bordercolor="#eeeeee"
     borderopacity="1"
     inkscape:showpageshadow="0"
     inkscape:pageopacity="0"
     inkscape:pagecheckerboard="0"
     inkscape:deskcolor="#505050"
     showgrid="false"
     inkscape:zoom="2.1226717"
     inkscape:cx="187.97066"
     inkscape:cy="241.67656"
     inkscape:window-width="2560"
     inkscape:window-height="1377"
     inkscape:window-x="2552"
     inkscape:window-y="-8"
     inkscape:window-maximized="1"
     inkscape:current-layer="g196" />
  <g
     class=""
     transform="translate(0,0)"
     style=""
     id="g196">
    <path
       d="m 126.71694,427.05119 0.1121,0.35698 0.0885,0.36287 c 4.60526,18.12455 19.98022,32.96699 43.51543,43.66294 23.53963,10.69741 54.41198,16.4916 85.26662,16.58011 30.85613,0.0885 61.70783,-5.53605 85.20763,-16.17446 23.49833,-10.63547 38.85116,-25.47939 43.48592,-44.02138 l 0.12096,-0.49269 0.16226,-0.48383 c 30.834,-92.50346 40.76141,-194.89848 30.78532,-272.74978 -112.39518,42.77787 -207.57005,42.71887 -320.008,-0.16226 -12.454646,95.83738 8.39302,199.0227 31.26326,273.1215 z"
       fill="#ffffff"
       fill-opacity="1"
       data-darkreader-inline-fill=""
       id="path2741"
       sodipodi:nodetypes="ccccsccccccc"
       style="display:inline;fill:#000000;fill-opacity:1;stroke:#ffffff;stroke-width:4;stroke-linecap:square;stroke-linejoin:round;stroke-dasharray:none;stroke-opacity:1;paint-order:markers fill stroke"
       inkscape:label="bottom" />
    <path
       d="m 265.5171,13.940838 v 14.396967 h 27.02606 V 149.29593 H 265.5171 v 20.63074 c 45.4006,-1.77012 94.69475,-12.62242 145.63435,-32.55544 C 405.56082,109.01982 397.0908,83.022679 385.77532,60.183719 367.87794,34.165921 316.64993,16.570939 265.51562,13.939363 Z"
       fill="#ffffff"
       fill-opacity="1"
       data-darkreader-inline-fill=""
       id="path1644"
       sodipodi:nodetypes="cccccccccc"
       style="display:inline;fill:#ffffff;fill-opacity:1;stroke:#ffffff;stroke-width:4;stroke-linecap:square;stroke-linejoin:round;stroke-dasharray:none;stroke-opacity:1;paint-order:markers fill stroke"
       inkscape:label="right" />
    <path
       d="m 233.33605,38.564238 v 99.064792 h 43.21878 V 38.564238 Z"
       fill="#ffffff"
       fill-opacity="1"
       data-darkreader-inline-fill=""
       id="path1646"
       sodipodi:nodetypes="ccccc"
       style="display:inline;fill:#000000;fill-opacity:1;stroke:#ffffff;stroke-width:4;stroke-linecap:square;stroke-linejoin:round;stroke-dasharray:none;stroke-opacity:1;paint-order:markers fill stroke"
       inkscape:label="scroll" />
    <path
       d="M 242.38979,13.940838 C 191.2422,16.570939 143.42538,34.173297 125.53833,60.199946 114.03256,83.409155 105.46223,109.20864 99.839156,137.237 150.91299,157.25704 200.72719,168.15213 246.22957,169.92815 V 149.29593 H 218.78672 V 28.337805 h 27.44285 V 13.940838 Z"
       fill="#ffffff"
       fill-opacity="1"
       data-darkreader-inline-fill=""
       id="path1648"
       sodipodi:nodetypes="cccccccccc"
       style="display:inline;fill:#000000;fill-opacity:1;stroke:#ffffff;stroke-width:4;stroke-linecap:square;stroke-linejoin:round;stroke-miterlimit:4;stroke-dasharray:none;stroke-opacity:1;paint-order:markers fill stroke"
       inkscape:label="left" />
  </g>
</svg>
