<?xml version="1.0" encoding="UTF-8" standalone="no"?>
<!-- Created with Inkscape (http://www.inkscape.org/) -->

<svg
   width="512"
   height="512"
   viewBox="0 0 512 512"
   version="1.1"
   id="svg5"
   xml:space="preserve"
   inkscape:version="1.2 (dc2aedaf03, 2022-05-15)"
   sodipodi:docname="basicFish.svg"
   xmlns:inkscape="http://www.inkscape.org/namespaces/inkscape"
   xmlns:sodipodi="http://sodipodi.sourceforge.net/DTD/sodipodi-0.dtd"
   xmlns="http://www.w3.org/2000/svg"
   xmlns:svg="http://www.w3.org/2000/svg"><sodipodi:namedview
     id="namedview7"
     pagecolor="#505050"
     bordercolor="#eeeeee"
     borderopacity="1"
     inkscape:showpageshadow="0"
     inkscape:pageopacity="0"
     inkscape:pagecheckerboard="0"
     inkscape:deskcolor="#505050"
     inkscape:document-units="px"
     showgrid="false"
     inkscape:zoom="1.8998634"
     inkscape:cx="302.39016"
     inkscape:cy="258.43963"
     inkscape:window-width="2560"
     inkscape:window-height="1377"
     inkscape:window-x="2552"
     inkscape:window-y="-8"
     inkscape:window-maximized="1"
     inkscape:current-layer="layer1" /><defs
     id="defs2" /><g
     inkscape:label="Layer 1"
     inkscape:groupmode="layer"
     id="layer1"><path
       d="m 196.90586,136.08913 c 15.50634,15.50632 30.8896,43.07316 36.91985,63.74828 -44.91913,9.22998 -92.17655,30.6435 -133.40372,48.85723 C 73.839697,219.28188 30.889603,195.16088 0,195.16088 c 19.690584,19.56754 39.381168,59.07175 39.381168,78.76233 0,19.69056 0,39.38113 -19.690584,78.76232 15.383267,0 55.010579,-24.121 80.854476,-53.5338 38.2736,17.10619 81.83901,36.55067 123.68149,46.64208 3.44583,15.38326 -11.93742,30.88959 -27.32069,46.27286 16.24474,0 72.97823,-13.53725 103.2525,-40.36568 82.82354,-6.5225 211.79684,-42.08864 211.79684,-77.77778 0,-30.27424 -94.14557,-60.79466 -173.15404,-73.10125 -41.96556,-34.21241 -107.19064,-64.73283 -141.8953,-64.73283 z"
       fill="#ffffff"
       fill-opacity="1"
       id="path132"
       style="stroke-width:0.264583"
       sodipodi:nodetypes="ccccscccccscc" /></g></svg>
