<?xml version="1.0" encoding="UTF-8" standalone="no"?>
<!-- Created with Inkscape (http://www.inkscape.org/) -->

<svg
   width="512"
   height="512"
   viewBox="0 0 512 512"
   version="1.1"
   id="svg5"
   xml:space="preserve"
   inkscape:version="1.2 (dc2aedaf03, 2022-05-15)"
   sodipodi:docname="leanFish.svg"
   xmlns:inkscape="http://www.inkscape.org/namespaces/inkscape"
   xmlns:sodipodi="http://sodipodi.sourceforge.net/DTD/sodipodi-0.dtd"
   xmlns="http://www.w3.org/2000/svg"
   xmlns:svg="http://www.w3.org/2000/svg"><sodipodi:namedview
     id="namedview7"
     pagecolor="#505050"
     bordercolor="#eeeeee"
     borderopacity="1"
     inkscape:showpageshadow="0"
     inkscape:pageopacity="0"
     inkscape:pagecheckerboard="0"
     inkscape:deskcolor="#505050"
     inkscape:document-units="px"
     showgrid="false"
     inkscape:zoom="1.8998634"
     inkscape:cx="302.39016"
     inkscape:cy="258.43963"
     inkscape:window-width="2560"
     inkscape:window-height="1377"
     inkscape:window-x="2552"
     inkscape:window-y="-8"
     inkscape:window-maximized="1"
     inkscape:current-layer="layer1" /><defs
     id="defs2" /><g
     inkscape:label="Layer 1"
     inkscape:groupmode="layer"
     id="layer1"><path
       d="m 195.3268,197.67251 c 15.50634,15.50632 30.8896,7.80746 36.91985,28.48258 -44.91913,9.22998 -65.33252,3.79947 -106.55969,22.0132 C 99.104671,218.75553 30.889603,195.16088 0,195.16088 c 19.690584,19.56754 9.9053644,62.22987 9.9053644,81.92045 0,19.69056 29.4758036,36.22301 9.7852196,75.6042 15.383267,0 85.012736,-22.01559 110.856636,-51.42839 38.2736,17.10619 64.99569,6.02216 106.83817,16.11357 3.44583,15.38326 -29.83344,17.2044 -45.21671,32.58767 16.24474,0 125.61359,-9.85278 155.88786,-36.68121 100.71956,-3.89073 163.89866,-3.66482 163.89866,-39.35396 0,-30.27424 -87.82933,-31.84521 -166.8378,-44.1518 -41.96556,-34.21241 -115.08594,-32.0989 -149.7906,-32.0989 z"
       fill="#ffffff"
       fill-opacity="1"
       id="path132"
       style="stroke-width:0.264583"
       sodipodi:nodetypes="ccccscccccscc" /></g></svg>
