<?xml version="1.0" encoding="UTF-8" standalone="no"?>
<!-- Created with Inkscape (http://www.inkscape.org/) -->

<svg
   width="512"
   height="512"
   viewBox="0 0 512 512"
   version="1.1"
   id="svg5"
   xml:space="preserve"
   inkscape:version="1.2 (dc2aedaf03, 2022-05-15)"
   sodipodi:docname="thickFish.svg"
   xmlns:inkscape="http://www.inkscape.org/namespaces/inkscape"
   xmlns:sodipodi="http://sodipodi.sourceforge.net/DTD/sodipodi-0.dtd"
   xmlns="http://www.w3.org/2000/svg"
   xmlns:svg="http://www.w3.org/2000/svg"><sodipodi:namedview
     id="namedview7"
     pagecolor="#505050"
     bordercolor="#eeeeee"
     borderopacity="1"
     inkscape:showpageshadow="0"
     inkscape:pageopacity="0"
     inkscape:pagecheckerboard="0"
     inkscape:deskcolor="#505050"
     inkscape:document-units="px"
     showgrid="false"
     inkscape:zoom="1.8998634"
     inkscape:cx="302.39016"
     inkscape:cy="258.43963"
     inkscape:window-width="2560"
     inkscape:window-height="1377"
     inkscape:window-x="2552"
     inkscape:window-y="-8"
     inkscape:window-maximized="1"
     inkscape:current-layer="layer1" /><defs
     id="defs2" /><g
     inkscape:label="Layer 1"
     inkscape:groupmode="layer"
     id="layer1"><path
       d="m 189.01056,106.61333 c 15.50634,15.50632 41.41667,39.38868 47.44692,60.0638 -44.91913,9.22998 -93.75561,31.16985 -134.98278,49.38358 C 74.892404,186.64795 30.889603,195.16088 0,195.16088 c 19.690584,19.56754 39.381168,59.07175 39.381168,78.76233 0,19.69056 0,39.38113 -19.690584,78.76232 15.383267,0 58.695054,2.19668 84.538956,-27.21612 38.2736,17.10619 77.62818,37.60338 119.47066,47.69479 3.44583,15.38326 -37.2024,26.67876 -52.58567,42.06203 16.24474,0 163.51106,1.72701 175.36295,-36.15485 82.82354,-6.5225 170.94751,-9.55898 165.47772,-105.14817 C 507.27214,192.08279 420.4414,179.96827 341.43293,167.66168 312.62621,117.65866 223.71522,106.61333 189.01056,106.61333 Z"
       fill="#ffffff"
       fill-opacity="1"
       id="path132"
       style="stroke-width:0.264583"
       sodipodi:nodetypes="ccccscccccscc" /></g></svg>
